<svg xmlns="http://www.w3.org/2000/svg" width="30" height="30" viewBox="0 0 30 30">
	<g transform="translate(30) rotate(90)">
		<rect fill="none" width="30" height="30" />
		<g transform="translate(4.688 3.75)">
			<path fill="#fff" d="M58.038,64.279c-.022-.022-.045-.043-.069-.063l-.031-.023-.043-.031-.039-.024-.04-.023-.041-.02-.042-.02-.04-.015-.047-.016-.04-.01-.049-.012-.046-.007-.045-.006c-.027,0-.054,0-.082,0h-.021c-.027,0-.055,0-.082,0l-.045.006-.046.007-.049.012-.04.01-.047.016-.04.015-.042.02-.041.02-.04.023-.039.024-.043.031-.031.023q-.036.03-.069.063l-8.437,8.437A.937.937,0,0,0,49.6,74.042L56.438,67.2V83.691a.938.938,0,0,0,1.875,0V67.2l6.837,6.837a.937.937,0,0,0,1.326-1.326Z" transform="translate(-47.063 -60.254)" />
			<path fill="#fff" d="M59.688,32H40.938a.937.937,0,0,0,0,1.875h18.75a.938.938,0,0,0,0-1.875Z" transform="translate(-40 -32.004)" />
		</g>
	</g>
</svg>
