<svg xmlns="http://www.w3.org/2000/svg" xmlns:xlink="http://www.w3.org/1999/xlink" width="21.15" height="21.128" viewBox="0 0 21.15 21.128">
  <!-- <defs>
    <clipPath id="clip-path">
      <rect id="Rectangle_141386" data-name="Rectangle 141386" width="21.15" height="21.128" fill="#919ab1"/>
    </clipPath>
  </defs> -->
  <!-- <g id="Group_157634" data-name="Group 157634" transform="translate(-365.009 -93.163)">
    <g id="Group_157633" data-name="Group 157633" transform="translate(365.009 93.163)" clip-path="url(#clip-path)"> -->
      <path id="Path_5151" data-name="Path 5151" d="M369.635,95.8a1.98,1.98,0,1,0,1.983,1.98A1.982,1.982,0,0,0,369.635,95.8Zm-4.626,7.763V95.144a1.982,1.982,0,0,1,1.983-1.981h8.431a1.91,1.91,0,0,1,1.4.58l8.752,8.743a1.98,1.98,0,0,1,0,2.8l-8.431,8.423a1.985,1.985,0,0,1-2.8,0l-8.753-8.745A1.9,1.9,0,0,1,365.009,103.567Z" transform="translate(-365.009 -93.163)" fill="#919ab1"/>
    <!-- </g>
  </g> -->
</svg>
