<?xml version="1.0" encoding="iso-8859-1"?>
<!-- Generator: Adobe Illustrator 16.0.0, SVG Export Plug-In . SVG Version: 6.00 Build 0)  -->
<!DOCTYPE svg PUBLIC "-//W3C//DTD SVG 1.1//EN" "http://www.w3.org/Graphics/SVG/1.1/DTD/svg11.dtd">
<svg version="1.1" xmlns="http://www.w3.org/2000/svg" xmlns:xlink="http://www.w3.org/1999/xlink" x="0px" y="0px" width="512px"
	 height="512px" viewBox="0 0 512 512" style="enable-background:new 0 0 512 512;" xml:space="preserve">
<g id="_x32_61_x2C__resume_x2C__employee_x2C__hiring_x2C__hr_x2C__profile">
	<g>
		<g>
			<path style="fill:#707487;" d="M440.002,385.001c-0.273,0-0.551-0.038-0.826-0.116l-33.717-9.634l-6.869,4.293
				c-0.71,0.444-1.572,0.57-2.379,0.351l-11-3c-1.599-0.437-2.541-2.085-2.105-3.684c0.437-1.599,2.09-2.542,3.684-2.105
				l9.734,2.655l6.887-4.305c0.721-0.45,1.598-0.573,2.414-0.341l35,10c1.593,0.455,2.516,2.116,2.061,3.709
				C442.508,384.142,441.307,385.001,440.002,385.001z"/>
		</g>
		<g>
			<path style="fill:#707487;" d="M79.998,385.001c-1.305,0-2.506-0.859-2.883-2.177c-0.455-1.593,0.468-3.254,2.061-3.709l35-10
				c0.815-0.231,1.694-0.109,2.414,0.341l6.887,4.305l9.734-2.655c1.593-0.437,3.247,0.505,3.684,2.105
				c0.436,1.599-0.507,3.247-2.105,3.684l-11,3c-0.808,0.217-1.669,0.093-2.379-0.351l-6.869-4.293l-33.717,9.634
				C80.549,384.963,80.271,385.001,79.998,385.001z"/>
		</g>
		<g>
			<path style="fill:#D8F2F1;" d="M367,97v291H153V97H367z"/>
		</g>
		<g>
			<path style="fill:#7E8C8D;" d="M260,400c4,0,8,4,8,8s-4,8-8,8s-8-4-8-8S256,400,260,400z"/>
		</g>
		<g>
			<polygon style="fill:#40B3E2;" points="308,198 308,226 262,226 212,226 212,198 244,184 243,202 260,202 277,202 277,184.44 			
				"/>
		</g>
		<g>
			<path style="fill:#EABD8C;" d="M272,174.32v15.21L259,201l-11-11v-16c0.11,0.06,0.23,0.11,0.34,0.16
				c3.05,1.62,6.49,2.59,10.16,2.79c0.17,0.02,0.34,0.03,0.51,0.03c0.33,0.01,0.66,0.02,0.99,0.02c0.47,0,0.92-0.01,1.37-0.03
				c0.01,0,0.03,0,0.04,0c2.72-0.109,5.109-0.529,7.189-1.279C269.78,175.31,270.92,174.86,272,174.32z"/>
		</g>
		<g>
			<g>
				<path style="fill:#FFD8A8;" d="M279.15,134.78c4.31,4.45,6.85,10.489,6.85,17.22c0,10.59-5.49,19.19-14,23.32V175
					c-1.02,0.68-2.15,1.24-3.4,1.69c-2.25,0.72-4.649,1.159-7.189,1.279c-0.01,0-0.03,0-0.04,0c-0.45,0.021-0.91,0.03-1.37,0.03
					c-0.33,0-0.66-0.01-0.99-0.02c-0.17-0.011-0.34-0.021-0.51-0.03c-3.39-0.21-6.77-1.141-10.16-2.79
					C240.35,170.98,235,162.46,235,152c0-2.78,0.43-5.44,1.25-7.92c2.97,0.97,6.86,1.92,10.75,1.92c7.83,0,15.15-3.54,19.79-9.19
					c-0.26,0.391-0.521,0.79-0.79,1.19c2.5,2.5,5.25,4.5,8.38,5.88C277.5,145.25,281,146,285,146
					C283.9,141.6,281.89,137.8,279.15,134.78z"/>
			</g>
			<g>
				<path style="fill:#8E725D;" d="M266.79,136.81c1.86-2.239,3.29-4.819,4.15-7.64c3.159,1.34,5.93,3.25,8.21,5.61
					c2.739,3.02,4.75,6.819,5.85,11.22c-4,0-7.5-0.75-10.62-2.12c-3.13-1.38-5.88-3.38-8.38-5.88
					C266.27,137.6,266.53,137.2,266.79,136.81z"/>
			</g>
			<g>
				<path style="fill:#A28671;" d="M270.94,129.17c-0.881,2.55-2.46,5.09-4.15,7.64c-4.64,5.65-11.96,9.19-19.79,9.19
					c-3.89,0-7.78-0.95-10.75-1.92c0.5-1.59,1.17-3.11,1.98-4.53c0.01-0.02,0.02-0.03,0.02-0.04c4.1-6.66,10.69-11.31,18.55-12.31
					c0.28-0.03,0.55-0.061,0.83-0.09c0.24-0.03,0.49-0.04,0.74-0.051c0.17-0.02,0.34-0.029,0.5-0.029
					c0.38-0.021,0.75-0.03,1.13-0.03C263.97,127,267.66,127.77,270.94,129.17z"/>
			</g>
		</g>
		<path style="fill:#95A5A5;" d="M385.9,201.51V105.15c0-16.71-12.65-30.37-28.11-30.37h-195.6c-15.46,0-28.08,13.66-28.08,30.37
			v96.359c9.04-3.99,14.89,1.42,14.89,10.49c-0.67,10-7.11,18.66-14.89,26.88v8.75L134,248v109h0.11v39.2
			c0,16.71,12.62,30.37,28.08,30.37h195.6c15.46,0,28.11-13.66,28.11-30.37v-22.22v-17.07V247.63v-8.74
			c-0.079-0.083-0.155-0.167-0.233-0.25v-37.228C385.745,201.445,385.821,201.476,385.9,201.51z M260,416c-4,0-8-4-8-8s4-8,8-8
			s8,4,8,8S264,416,260,416z M367,388H153V97h214V388z"/>
		<g>
			<path style="fill:#EABD8C;" d="M444.77,262.88l-0.319,1.22L444,265l-6,23l-14,52l-4,17l-18,4l-16-4V248l8,2l4,1
				c-4-4-8.22-8-12.1-12.11v-0.34c-7.2-8.229-13.12-16.87-13.391-26.25c-0.2-7.13,2.87-12.069,8.08-12.109
				c0.09-0.011,0.18,0,0.271,0.01c1.05,0.06,2.17,0.28,3.35,0.66c0.09,0.029,0.18,0.06,0.28,0.1c0.46,0.18,0.93,0.38,1.41,0.62
				v-0.07c5.92,2.61,13.199,9.24,21.1,21.49c8,14,31,5,32,37L444.77,262.88z"/>
		</g>
		<g>
			<path style="fill:#EABD8C;" d="M134.11,238.88C130.23,243,126,247,122,251l4-1l8-2v109l-16,4l-18-4l-4-17l-14-52l-6-23l-0.45-0.9
				l-0.319-1.22L81,260c1-32,24-23,32-37c7.91-12.26,15.19-18.89,21.11-21.49c9.04-3.99,14.89,1.42,14.89,10.49
				C148.33,222,141.89,230.66,134.11,238.88z"/>
		</g>
		<g>
			<g>
				<path style="fill:#7E8C8D;" d="M275,255H173c-1.657,0-3-1.343-3-3s1.343-3,3-3h102c1.657,0,3,1.343,3,3S276.657,255,275,255z"/>
			</g>
		</g>
		<g>
			<g>
				<path style="fill:#7E8C8D;" d="M345,277H173c-1.657,0-3-1.343-3-3s1.343-3,3-3h172c1.657,0,3,1.343,3,3S346.657,277,345,277z"/>
			</g>
		</g>
		<g>
			<g>
				<path style="fill:#7E8C8D;" d="M275,299H173c-1.657,0-3-1.343-3-3s1.343-3,3-3h102c1.657,0,3,1.343,3,3S276.657,299,275,299z"/>
			</g>
		</g>
		<g>
			<g>
				<path style="fill:#7E8C8D;" d="M345,321H173c-1.657,0-3-1.343-3-3s1.343-3,3-3h172c1.657,0,3,1.343,3,3S346.657,321,345,321z"/>
			</g>
		</g>
		<g>
			<g>
				<path style="fill:#7E8C8D;" d="M275,343H173c-1.657,0-3-1.343-3-3s1.343-3,3-3h102c1.657,0,3,1.343,3,3S276.657,343,275,343z"/>
			</g>
		</g>
		<g>
			<path style="fill:#707487;" d="M350,449H120c-1.657,0-3-1.343-3-3s1.343-3,3-3h230c1.657,0,3,1.343,3,3S351.657,449,350,449z"/>
		</g>
		<g>
			<path style="fill:#707487;" d="M413,463H255c-1.657,0-3-1.343-3-3s1.343-3,3-3h158c1.657,0,3,1.343,3,3S414.657,463,413,463z"/>
		</g>
		<g>
			<path style="fill:#707487;" d="M450,463h-20c-1.657,0-3-1.343-3-3s1.343-3,3-3h20c1.657,0,3,1.343,3,3S451.657,463,450,463z"/>
		</g>
		<g>
			<path style="fill:#707487;" d="M186,462h-75c-1.657,0-3-1.343-3-3s1.343-3,3-3h75c1.657,0,3,1.343,3,3S187.657,462,186,462z"/>
		</g>
		<g>
			<path style="fill:#707487;" d="M121,131c-1.657,0-3-1.343-3-3V60c0-1.657,1.343-3,3-3h64c1.657,0,3,1.343,3,3s-1.343,3-3,3h-61
				v65C124,129.657,122.657,131,121,131z"/>
		</g>
		<g>
			<polygon style="fill:#86DCFD;" points="277,184.44 277,202 260,202 260,199 272,188 272,187.53 276,184 			"/>
		</g>
		<g>
			<polygon style="fill:#86DCFD;" points="259,199 260,199 260,202 243,202 244,184 248,188 			"/>
		</g>
		<g>
			<path style="fill:#5B6072;" d="M81.25,342.25c1,4-1,8-5,9c-4,2-8-1-9-5s1-8,5-9S80.25,338.25,81.25,342.25z"/>
		</g>
		<g>
			<path style="fill:#707487;" d="M75.8,260.35l26.45,100.9l-44,12l-28-103l45-12l0.23,0.88l-0.23,0.12L75.8,260.35z M76.25,351.25
				c4-1,6-5,5-9s-5-6-9-5s-6,5-5,9S72.25,353.25,76.25,351.25z"/>
		</g>
		<g>
			<path style="fill:#5B6072;" d="M447.666,338.5c4,1,6,5,5,9s-5,7-9,5c-4-1-6-5-5-9S443.666,337.5,447.666,338.5z"/>
		</g>
		<g>
			<path style="fill:#707487;" d="M489.666,271.5l-28,103l-44-12l26.45-100.9l0.55-1.1l-0.23-0.12l0.23-0.88L489.666,271.5z
				 M452.666,347.5c1-4-1-8-5-9s-8,1-9,5s1,8,5,9C447.666,354.5,451.666,351.5,452.666,347.5z"/>
		</g>
	</g>
</g>
<g id="Layer_1">
</g>
</svg>
