<svg xmlns="http://www.w3.org/2000/svg" xmlns:xlink="http://www.w3.org/1999/xlink" version="1.1" width="256" height="256" viewBox="0 0 256 256" xml:space="preserve">
<desc>Created with Fabric.js 1.7.22</desc>
<defs>
</defs>
<g transform="translate(128 128) scale(0.72 0.72)" style="">
	<g style="stroke: none; stroke-width: 0; stroke-dasharray: none; stroke-linecap: butt; stroke-linejoin: miter; stroke-miterlimit: 10; fill: none; fill-rule: nonzero; opacity: 1;" transform="translate(-175.05 -175.05000000000004) scale(3.89 3.89)" >
	<path d="M 19.765 17.036 c -0.118 0 -0.233 -0.023 -0.343 -0.068 c -0.222 -0.092 -0.394 -0.265 -0.486 -0.486 c -0.054 -0.131 0.008 -0.282 0.139 -0.336 c 0.131 -0.054 0.282 0.008 0.336 0.139 c 0.039 0.094 0.113 0.168 0.207 0.207 c 0.094 0.039 0.199 0.039 0.293 0 l 1.006 -0.417 c 0.195 -0.081 0.288 -0.305 0.207 -0.5 c -0.152 -0.366 -0.009 -0.693 0.174 -0.877 c 0.183 -0.184 0.51 -0.327 0.876 -0.174 c 0.094 0.039 0.199 0.039 0.293 0 c 0.094 -0.039 0.168 -0.112 0.207 -0.207 l 0.417 -1.006 c 0.039 -0.094 0.039 -0.198 0 -0.293 c -0.039 -0.095 -0.113 -0.168 -0.207 -0.207 c -0.366 -0.152 -0.497 -0.484 -0.497 -0.743 c 0 -0.26 0.13 -0.591 0.496 -0.743 c 0.095 -0.039 0.168 -0.113 0.207 -0.207 c 0.039 -0.094 0.039 -0.198 0 -0.293 l -0.417 -1.006 c -0.039 -0.095 -0.113 -0.168 -0.207 -0.207 c -0.095 -0.039 -0.199 -0.039 -0.293 0 c -0.366 0.152 -0.692 0.009 -0.876 -0.175 c -0.184 -0.184 -0.326 -0.511 -0.174 -0.877 c 0.039 -0.094 0.039 -0.198 0 -0.293 C 21.086 8.173 21.012 8.1 20.917 8.06 l -1.006 -0.417 c -0.094 -0.039 -0.198 -0.039 -0.293 0 c -0.094 0.039 -0.168 0.113 -0.207 0.207 c -0.054 0.132 -0.205 0.193 -0.336 0.139 c -0.131 -0.054 -0.194 -0.205 -0.139 -0.336 c 0.091 -0.221 0.264 -0.394 0.485 -0.486 c 0.221 -0.092 0.465 -0.092 0.687 0 l 1.006 0.417 c 0.221 0.092 0.394 0.264 0.486 0.485 c 0.092 0.222 0.092 0.465 0 0.686 c -0.065 0.156 0.012 0.265 0.063 0.316 c 0.051 0.051 0.16 0.128 0.316 0.063 c 0.221 -0.092 0.465 -0.092 0.686 0 c 0.222 0.092 0.394 0.264 0.486 0.486 l 0.417 1.006 c 0.091 0.221 0.092 0.465 0 0.686 c -0.092 0.222 -0.264 0.394 -0.486 0.486 c -0.156 0.065 -0.179 0.196 -0.179 0.268 c 0 0.072 0.023 0.203 0.179 0.268 c 0.221 0.092 0.393 0.264 0.485 0.486 c 0.092 0.222 0.092 0.465 0 0.686 l -0.417 1.006 c -0.091 0.221 -0.264 0.394 -0.486 0.485 c -0.221 0.092 -0.465 0.092 -0.686 0 c -0.156 -0.064 -0.265 0.012 -0.316 0.063 c -0.052 0.051 -0.128 0.161 -0.064 0.317 c 0.189 0.457 -0.028 0.982 -0.485 1.172 l -1.006 0.417 C 19.998 17.013 19.883 17.036 19.765 17.036 z" style="stroke: none; stroke-width: 1; stroke-dasharray: none; stroke-linecap: butt; stroke-linejoin: miter; stroke-miterlimit: 10; fill: #FFFFFF; fill-rule: nonzero; opacity: 1;" transform=" matrix(3.89 0 0 3.89 -1.9444444444444287 -1.9444444444444287) " stroke-linecap="round" />
	<path d="M 6.565 17.036 c -0.118 0 -0.233 -0.023 -0.343 -0.069 C 6 16.875 5.827 16.703 5.736 16.482 c -0.065 -0.156 -0.196 -0.179 -0.268 -0.179 c -0.072 0 -0.203 0.023 -0.268 0.179 c -0.189 0.456 -0.715 0.674 -1.171 0.485 L 3.022 16.55 c -0.457 -0.19 -0.674 -0.715 -0.485 -1.172 c 0.065 -0.156 -0.012 -0.265 -0.063 -0.317 c -0.051 -0.051 -0.161 -0.127 -0.316 -0.063 C 1.7 15.187 1.175 14.97 0.985 14.514 l -0.417 -1.006 c -0.189 -0.457 0.029 -0.983 0.485 -1.172 c 0 0 0 0 0 0 c 0.156 -0.065 0.179 -0.196 0.179 -0.268 c 0 -0.073 -0.023 -0.204 -0.179 -0.268 c -0.221 -0.092 -0.394 -0.264 -0.485 -0.485 c -0.092 -0.221 -0.092 -0.465 0 -0.686 l 0.417 -1.006 c 0.19 -0.457 0.716 -0.674 1.172 -0.485 c 0.156 0.065 0.265 -0.012 0.316 -0.063 c 0.051 -0.051 0.128 -0.161 0.063 -0.316 c -0.092 -0.222 -0.092 -0.465 0 -0.686 C 2.628 7.85 2.801 7.677 3.022 7.586 l 1.006 -0.417 C 4.485 6.98 5.01 7.198 5.2 7.654 C 5.264 7.81 5.395 7.833 5.468 7.833 c 0.072 0 0.204 -0.023 0.268 -0.179 C 5.827 7.433 6 7.261 6.221 7.169 c 0.221 -0.091 0.465 -0.092 0.687 0 l 1.006 0.417 C 8.135 7.677 8.308 7.85 8.399 8.071 c 0.092 0.221 0.092 0.465 0 0.686 C 8.335 8.913 8.411 9.022 8.462 9.074 c 0.051 0.051 0.16 0.128 0.316 0.063 c 0.221 -0.092 0.465 -0.092 0.686 0 C 9.686 9.228 9.859 9.401 9.95 9.622 l 0.417 1.006 c 0.092 0.221 0.092 0.465 0 0.686 c -0.092 0.221 -0.264 0.394 -0.485 0.486 c -0.156 0.065 -0.179 0.196 -0.179 0.268 c 0 0.072 0.023 0.203 0.179 0.268 c 0.457 0.189 0.674 0.715 0.485 1.172 L 9.95 14.514 c -0.092 0.221 -0.264 0.394 -0.486 0.485 c -0.221 0.092 -0.465 0.092 -0.686 0 c -0.156 -0.065 -0.265 0.012 -0.316 0.063 c -0.051 0.051 -0.127 0.161 -0.063 0.316 c 0.189 0.456 -0.028 0.982 -0.485 1.172 l -1.006 0.417 C 6.798 17.013 6.682 17.036 6.565 17.036 z M 5.468 15.788 c 0.26 0 0.592 0.131 0.743 0.497 c 0.039 0.094 0.113 0.168 0.207 0.207 c 0.094 0.039 0.198 0.039 0.293 0 l 1.006 -0.416 c 0.195 -0.081 0.288 -0.305 0.207 -0.5 c -0.151 -0.366 -0.009 -0.693 0.174 -0.876 c 0.184 -0.184 0.51 -0.326 0.877 -0.175 c 0.094 0.039 0.199 0.039 0.293 0 c 0.094 -0.039 0.168 -0.113 0.207 -0.207 l 0.417 -1.006 c 0.039 -0.094 0.039 -0.198 0 -0.293 c -0.039 -0.095 -0.113 -0.168 -0.207 -0.207 c -0.366 -0.152 -0.497 -0.484 -0.497 -0.743 c 0 -0.26 0.13 -0.591 0.496 -0.743 c 0.095 -0.039 0.168 -0.113 0.207 -0.207 c 0.039 -0.095 0.039 -0.199 0 -0.293 L 9.475 9.819 C 9.436 9.724 9.363 9.651 9.268 9.612 c -0.095 -0.039 -0.199 -0.039 -0.293 0 C 8.608 9.764 8.282 9.621 8.098 9.437 c -0.184 -0.184 -0.326 -0.51 -0.174 -0.876 c 0.039 -0.094 0.039 -0.198 0 -0.293 C 7.885 8.173 7.811 8.1 7.717 8.06 L 6.711 7.644 c -0.094 -0.039 -0.199 -0.039 -0.293 0 C 6.324 7.683 6.25 7.757 6.211 7.851 C 6.059 8.217 5.728 8.348 5.468 8.348 c -0.26 0 -0.591 -0.13 -0.743 -0.496 c -0.081 -0.195 -0.305 -0.288 -0.5 -0.207 L 3.219 8.061 C 3.124 8.1 3.051 8.173 3.011 8.268 c -0.039 0.094 -0.039 0.198 0 0.293 c 0.151 0.366 0.009 0.692 -0.174 0.876 c -0.184 0.184 -0.51 0.327 -0.877 0.174 c -0.195 -0.081 -0.419 0.012 -0.5 0.207 l -0.417 1.006 c -0.039 0.095 -0.039 0.199 0 0.293 s 0.113 0.168 0.207 0.207 c 0.367 0.152 0.497 0.484 0.496 0.744 c 0 0.259 -0.13 0.591 -0.496 0.743 l -0.098 -0.237 l 0.098 0.237 c -0.195 0.081 -0.288 0.305 -0.207 0.5 l 0.417 1.006 c 0.081 0.195 0.305 0.288 0.5 0.207 c 0.365 -0.151 0.693 -0.01 0.876 0.174 c 0.184 0.184 0.326 0.511 0.174 0.877 c -0.081 0.195 0.012 0.419 0.207 0.5 l 1.006 0.417 c 0.194 0.08 0.419 -0.013 0.5 -0.207 C 4.876 15.919 5.208 15.788 5.468 15.788 z M 5.468 14.091 c -1.116 0 -2.024 -0.908 -2.024 -2.023 c 0 -1.116 0.908 -2.024 2.024 -2.024 c 1.116 0 2.024 0.908 2.024 2.024 C 7.491 13.184 6.584 14.091 5.468 14.091 z M 5.468 10.559 c -0.832 0 -1.509 0.677 -1.509 1.509 c 0 0.832 0.677 1.509 1.509 1.509 s 1.51 -0.677 1.51 -1.509 C 6.977 11.236 6.3 10.559 5.468 10.559 z" style="stroke: none; stroke-width: 1; stroke-dasharray: none; stroke-linecap: butt; stroke-linejoin: miter; stroke-miterlimit: 10; fill: #FFFFFF; fill-rule: nonzero; opacity: 1;" transform=" matrix(3.89 0 0 3.89 -1.9444444444444287 -1.9444444444444287) " stroke-linecap="round" />
	<path d="M 21.997 22.495 c -0.552 0 -1 -0.448 -1 -1 v -3.878 c 0 -2.016 1.64 -3.656 3.656 -3.656 h 33.741 c 0.553 0 1 0.448 1 1 c 0 0.552 -0.447 1 -1 1 H 24.653 c -0.913 0 -1.656 0.743 -1.656 1.656 v 3.878 C 22.997 22.047 22.549 22.495 21.997 22.495 z" style="stroke: none; stroke-width: 1; stroke-dasharray: none; stroke-linecap: butt; stroke-linejoin: miter; stroke-miterlimit: 10; fill: #FFFFFF; fill-rule: nonzero; opacity: 1;" transform=" matrix(1 0 0 1 0 0) " stroke-linecap="round" />
	<path d="M 65.346 76.039 H 24.653 c -2.016 0 -3.656 -1.641 -3.656 -3.656 v -4.417 c 0 -0.553 0.448 -1 1 -1 c 0.552 0 1 0.447 1 1 v 4.417 c 0 0.913 0.743 1.656 1.656 1.656 h 40.693 c 0.913 0 1.656 -0.743 1.656 -1.656 V 24.57 c 0 -0.552 0.447 -1 1 -1 c 0.553 0 1 0.448 1 1 v 47.813 C 69.003 74.398 67.362 76.039 65.346 76.039 z" style="stroke: none; stroke-width: 1; stroke-dasharray: none; stroke-linecap: butt; stroke-linejoin: miter; stroke-miterlimit: 10; fill: #FFFFFF; fill-rule: nonzero; opacity: 1;" transform=" matrix(1 0 0 1 0 0) " stroke-linecap="round" />
	<path d="M 43.893 27.369 h -9.009 c -0.552 0 -1 -0.448 -1 -1 s 0.448 -1 1 -1 h 9.009 c 0.552 0 1 0.448 1 1 S 44.445 27.369 43.893 27.369 z" style="stroke: none; stroke-width: 1; stroke-dasharray: none; stroke-linecap: butt; stroke-linejoin: miter; stroke-miterlimit: 10; fill: #FFFFFF; fill-rule: nonzero; opacity: 1;" transform=" matrix(1 0 0 1 0 0) " stroke-linecap="round" />
	<path d="M 58.394 39.79 h -14.77 c -0.552 0 -1 -0.448 -1 -1 c 0 -0.552 0.448 -1 1 -1 h 14.77 c 0.553 0 1 0.448 1 1 C 59.394 39.342 58.947 39.79 58.394 39.79 z" style="stroke: none; stroke-width: 1; stroke-dasharray: none; stroke-linecap: butt; stroke-linejoin: miter; stroke-miterlimit: 10; fill: #FFFFFF; fill-rule: nonzero; opacity: 1;" transform=" matrix(1 0 0 1 0 0) " stroke-linecap="round" />
	<path d="M 58.394 52.211 h -14.77 c -0.552 0 -1 -0.447 -1 -1 c 0 -0.553 0.448 -1 1 -1 h 14.77 c 0.553 0 1 0.447 1 1 C 59.394 51.764 58.947 52.211 58.394 52.211 z" style="stroke: none; stroke-width: 1; stroke-dasharray: none; stroke-linecap: butt; stroke-linejoin: miter; stroke-miterlimit: 10; fill: #FFFFFF; fill-rule: nonzero; opacity: 1;" transform=" matrix(1 0 0 1 0 0) " stroke-linecap="round" />
	<path d="M 58.394 64.632 H 35.181 c -0.552 0 -1 -0.447 -1 -1 c 0 -0.553 0.448 -1 1 -1 h 23.213 c 0.553 0 1 0.447 1 1 C 59.394 64.184 58.947 64.632 58.394 64.632 z" style="stroke: none; stroke-width: 1; stroke-dasharray: none; stroke-linecap: butt; stroke-linejoin: miter; stroke-miterlimit: 10; fill: #FFFFFF; fill-rule: nonzero; opacity: 1;" transform=" matrix(1 0 0 1 0 0) " stroke-linecap="round" />
	<path d="M 68.003 25.57 h -9.608 c -0.553 0 -1 -0.448 -1 -1 v -9.609 c 0 -0.404 0.244 -0.769 0.617 -0.924 c 0.375 -0.154 0.804 -0.069 1.09 0.217 l 9.608 9.609 c 0.286 0.286 0.372 0.716 0.217 1.09 C 68.772 25.326 68.407 25.57 68.003 25.57 z M 59.394 23.57 h 6.194 l -6.194 -6.195 V 23.57 z" style="stroke: none; stroke-width: 1; stroke-dasharray: none; stroke-linecap: butt; stroke-linejoin: miter; stroke-miterlimit: 10; fill: #FFFFFF; fill-rule: nonzero; opacity: 1;" transform=" matrix(1 0 0 1 0 0) " stroke-linecap="round" />
	<path d="M 72.642 52.566 c -0.431 0 -0.828 -0.279 -0.958 -0.713 c -0.158 -0.529 0.142 -1.086 0.671 -1.245 c 2.468 -0.739 4.191 -3.046 4.191 -5.608 s -1.724 -4.869 -4.191 -5.608 c -0.529 -0.159 -0.829 -0.716 -0.671 -1.245 c 0.158 -0.528 0.714 -0.833 1.245 -0.671 c 3.308 0.992 5.617 4.085 5.617 7.524 c 0 3.438 -2.31 6.533 -5.617 7.524 C 72.834 52.553 72.737 52.566 72.642 52.566 z" style="stroke: none; stroke-width: 1; stroke-dasharray: none; stroke-linecap: butt; stroke-linejoin: miter; stroke-miterlimit: 10; fill: #FFFFFF; fill-rule: nonzero; opacity: 1;" transform=" matrix(1 0 0 1 0 0) " stroke-linecap="round" />
</g>
</g>
</svg>