<svg xmlns="http://www.w3.org/2000/svg" xmlns:xlink="http://www.w3.org/1999/xlink" width="61.728" height="47.141" viewBox="0 0 61.728 47.141">
  <defs>
    <clipPath id="clip-path">
      <path id="Контур_1808" data-name="Контур 1808" d="M219.741,2.23V5.29h-3.027V2.23a3.025,3.025,0,0,0-3.025,3.023V8.293h6.051V11.3h3.018V2.23Z" transform="translate(-213.69 -2.23)" fill="none"/>
    </clipPath>
    <clipPath id="clip-path-2">
      <path id="Контур_1809" data-name="Контур 1809" d="M288.86,2.23h0V5.236h12.184V9.73h3.035V5.115h0a3.006,3.006,0,0,0-3.007-2.885Z" transform="translate(-288.86 -2.23)" fill="none" stroke="#707070" stroke-width="1"/>
    </clipPath>
    <clipPath id="clip-path-3">
      <path id="Контур_1810" data-name="Контур 1810" d="M234.9,47.509h3.094v3.1H234.9ZM231.872,40.1V50.608h-3.06V40.1H225.79V50.608h-3.03V46.176h-3.018v4.433h-3.027V43.186H213.69V53.614h24.322a3.006,3.006,0,0,0,3-2.84h0V44.5h-6.121V40.1Z" transform="translate(-213.69 -40.1)" fill="none"/>
    </clipPath>
    <clipPath id="clip-path-4">
      <path id="Контур_1811" data-name="Контур 1811" d="M213.69,135.85v3.025h.644a2.377,2.377,0,0,0,2.377-2.377v-.644H213.69Z" transform="translate(-213.69 -135.85)" fill="none"/>
    </clipPath>
  </defs>
  <g id="Сгруппировать_3874" data-name="Сгруппировать 3874" transform="translate(348.864 -114.354)">
    <g id="Сгруппировать_3860" data-name="Сгруппировать 3860" transform="translate(-348.864 138.902)">
      <g id="Сгруппировать_363" data-name="Сгруппировать 363">
        <g id="Сгруппировать_364" data-name="Сгруппировать 364" transform="translate(0 0)">
          <path id="Контур_1804" data-name="Контур 1804" d="M113.346,154.63h-3.518V158.5H108v2.8h1.83v2.079h0v7.053c0,1.33.554,1.885,1.886,1.885h.161a3.162,3.162,0,0,0,3.162-3.162H113.96a.556.556,0,0,1-.61-.609v-7.247h3.213V158.5h-3.221Z" transform="translate(-90.622 -154.63)" fill="#fff"/>
          <path id="Контур_1805" data-name="Контур 1805" d="M180.151,168.542V157.317h0V154.63H176.63v15.8a1.885,1.885,0,0,0,1.885,1.885h.161a3.159,3.159,0,0,0,3.168-3.16h-1.081a.61.61,0,0,1-.611-.611" transform="translate(-148.197 -154.63)" fill="#fff"/>
          <path id="Контур_1806" data-name="Контур 1806" d="M15.2,187.509a.61.61,0,0,1-.61-.607v-10.04H11.067v.841a7.044,7.044,0,1,0,.048,11.679c.161.9.726,1.289,1.836,1.289h.161a3.162,3.162,0,0,0,3.162-3.162Zm-4.138-.056-1.128-1.128a3.911,3.911,0,1,1,1.128-2.967v4.1" transform="translate(-0.109 -172.99)" fill="#fff"/>
          <path id="Контур_1807" data-name="Контур 1807" d="M229.912,183.46A7.042,7.042,0,0,0,218.58,178c-.093-.644-.593-1.115-1.756-1.115H213.69v2.791h1.11a.544.544,0,0,1,.61.61V195.6a3.492,3.492,0,0,0,3.494-3.494v-1.864c0-.354-.015-.654-.026-.868a7.039,7.039,0,0,0,11.034-5.918m-7.04,4.027a3.893,3.893,0,0,1-2.774-1.155l-1.139,1.139v-3.61s.026-.715.042-.831a3.911,3.911,0,1,1,3.866,4.467" transform="translate(-179.288 -173.01)" fill="#fff"/>
        </g>
      </g>
    </g>
    <g id="Сгруппировать_3861" data-name="Сгруппировать 3861" transform="translate(-314.462 114.354)">
      <g id="Сгруппировать_353" data-name="Сгруппировать 353" transform="translate(0)" clip-path="url(#clip-path)">
        <rect id="Прямоугольник_861" data-name="Прямоугольник 861" width="12.826" height="12.826" transform="matrix(0.731, -0.683, 0.683, 0.731, -4.525, 4.231)" fill="#a187bf"/>
      </g>
      <g id="Сгруппировать_354" data-name="Сгруппировать 354" transform="translate(12.108)" clip-path="url(#clip-path-2)">
        <rect id="Прямоугольник_862" data-name="Прямоугольник 862" width="16.239" height="15.869" transform="matrix(0.731, -0.683, 0.683, 0.731, -3.737, 3.497)" fill="#a187bf"/>
      </g>
      <g id="Сгруппировать_355" data-name="Сгруппировать 355" transform="translate(0 6.1)" clip-path="url(#clip-path-3)">
        <rect id="Прямоугольник_863" data-name="Прямоугольник 863" width="29.193" height="28.529" transform="matrix(0.731, -0.683, 0.683, 0.731, -6.739, 6.3)" fill="#a187bf"/>
      </g>
      <g id="Сгруппировать_356" data-name="Сгруппировать 356" transform="translate(0 21.523)" clip-path="url(#clip-path-4)">
        <rect id="Прямоугольник_864" data-name="Прямоугольник 864" width="4.276" height="4.276" transform="matrix(0.731, -0.683, 0.683, 0.731, -1.508, 1.413)" fill="#a187bf"/>
      </g>
    </g>
  </g>
</svg>
