<?xml version="1.0" standalone="no"?>
<!DOCTYPE svg PUBLIC "-//W3C//DTD SVG 1.1//EN" "http://www.w3.org/Graphics/SVG/1.1/DTD/svg11.dtd" >
<svg xmlns="http://www.w3.org/2000/svg">
<metadata>Generated by IcoMoon</metadata>
<defs>
<font id="dash_layout_icon" horiz-adv-x="1024">
<font-face units-per-em="1024" ascent="960" descent="-64" />
<missing-glyph horiz-adv-x="1024" />
<glyph unicode="&#x20;" horiz-adv-x="512" d="" />
<glyph unicode="&#xe900;" glyph-name="layout-1" d="M1024-64h-1024v1024h1024v-1024zM32-32h960v960h-960v-960z" />
<glyph unicode="&#xe901;" glyph-name="layout-2" d="M566.4 945.6h457.6v-1011.2h-457.6v1011.2zM0 945.6h457.6v-1011.2h-457.6v1011.2z" />
<glyph unicode="&#xe902;" glyph-name="layout-3" d="M296-72h-288v1040h288v-1040zM56-24h192v944h-192v-944zM1032-70.4h-288v1040h288v-1040zM792-22.4h192v944h-192v-944zM656-72h-288v1040h288v-1040zM416-24h192v944h-192v-944z" />
<glyph unicode="&#xe903;" glyph-name="layout-4" d="M648-72h-640v1040h640v-1040zM56-24h544v944h-544v-944zM1032-70.4h-288v1040h288v-1040zM792-22.4h192v944h-192v-944z" />
<glyph unicode="&#xe904;" glyph-name="layout-5" d="M1032-70.4h-640v1040h640v-1040zM440-22.4h544v944h-544v-944zM296-72h-288v1040h288v-1040zM56-24h192v944h-192v-944z" />
<glyph unicode="&#xe905;" glyph-name="layout-6" d="M216-72h-208v1040h208v-1040zM56-24h112v944h-112v-944zM488-62.4h-208v1040h208v-1040zM328-14.4h112v944h-112v-944zM760-62.4h-208v1040h208v-1040zM600-14.4h112v944h-112v-944zM1048-62.4h-208v1040h208v-1040zM888-14.4h112v944h-112v-944z" />
<glyph unicode="&#xe906;" glyph-name="layout-7" d="M513.6-62.4h-521.6v675.2h521.6v-675.2zM40-14.4h425.6v579.2h-425.6v-579.2zM1032 656h-1040v313.6h1040v-313.6zM40 704h944v217.6h-944v-217.6zM1036.8-62.4h-494.4v676.8h494.4v-676.8zM590.4-14.4h398.4v580.8h-398.4v-580.8z" />
<glyph unicode="&#xe907;" glyph-name="layout-8" d="M1032 681.6h-1040v288h1040v-288zM40 729.6h944v192h-944v-192zM1032-70.4h-288v704h288v-704zM792-22.4h192v608h-192v-608zM656-70.4h-288v704h288v-704zM416-22.4h192v608h-192v-608zM280-70.4h-288v704h288v-704zM40-22.4h192v608h-192v-608z" />
<glyph unicode="&#xe908;" glyph-name="layout-9" d="M1032 681.6h-1040v288h1040v-288zM40 729.6h944v192h-944v-192zM696-70.4h-704v704h704v-704zM40-22.4h608v608h-608v-608zM1032-70.4h-288v704h288v-704zM792-22.4h192v608h-192v-608z" />
<glyph unicode="&#xe909;" glyph-name="layout-10" d="M1032 681.6h-1040v288h1040v-288zM40 729.6h944v192h-944v-192zM1032-70.4h-704v704h704v-704zM376-22.4h608v608h-608v-608zM280-70.4h-288v704h288v-704zM40-22.4h192v608h-192v-608z" />
<glyph unicode="&#xe90a;" glyph-name="layout-11" d="M1032 681.6h-1040v288h1040v-288zM40 729.6h944v192h-944v-192zM233.6-70.4h-241.6v704h241.6v-704zM40-22.4h145.6v608h-145.6v-608zM494.4-67.2h-241.6v704h241.6v-704zM300.8-19.2h145.6v608h-145.6v-608zM1032-67.2h-241.6v704h241.6v-704zM838.4-19.2h145.6v608h-145.6v-608zM764.8-70.4h-241.6v704h241.6v-704zM571.2-22.4h145.6v608h-145.6v-608z" />
<glyph unicode="&#xe90b;" glyph-name="layout-12" d="M513.6 294.4h-521.6v675.2h521.6v-675.2zM40 342.4h425.6v579.2h-425.6v-579.2zM1032-62.4h-1040v313.6h1040v-313.6zM40-14.4h944v217.6h-944v-217.6zM1036.8 292.8h-494.4v676.8h494.4v-676.8zM590.4 340.8h398.4v580.8h-398.4v-580.8z" />
<glyph unicode="&#xe90c;" glyph-name="layout-13" d="M1032-70.4h-1040v288h1040v-288zM40-22.4h944v192h-944v-192zM1032 265.6h-288v704h288v-704zM792 313.6h192v608h-192v-608zM656 265.6h-288v704h288v-704zM416 313.6h192v608h-192v-608zM280 265.6h-288v704h288v-704zM40 313.6h192v608h-192v-608z" />
<glyph unicode="&#xe90d;" glyph-name="layout-14" d="M1032-70.4h-1040v288h1040v-288zM40-22.4h944v192h-944v-192zM696 265.6h-704v704h704v-704zM40 313.6h608v608h-608v-608zM1032 265.6h-288v704h288v-704zM792 313.6h192v608h-192v-608z" />
<glyph unicode="&#xe90e;" glyph-name="layout-15" d="M1032-70.4h-1040v288h1040v-288zM40-22.4h944v192h-944v-192zM1032 265.6h-704v704h704v-704zM376 313.6h608v608h-608v-608zM280 265.6h-288v704h288v-704zM40 313.6h192v608h-192v-608z" />
<glyph unicode="&#xe90f;" glyph-name="layout-16" d="M1032-70.4h-1040v288h1040v-288zM40-22.4h944v192h-944v-192zM233.6 265.6h-241.6v704h241.6v-704zM40 313.6h145.6v608h-145.6v-608zM494.4 262.4h-241.6v704h241.6v-704zM300.8 310.4h145.6v608h-145.6v-608zM1032 262.4h-241.6v704h241.6v-704zM838.4 310.4h145.6v608h-145.6v-608zM764.8 265.6h-241.6v704h241.6v-704zM571.2 313.6h145.6v608h-145.6v-608z" />
<glyph unicode="&#xe910;" glyph-name="layout-17" d="M1035.2-70.4h-1040v288h1040v-288zM43.2-22.4h944v192h-944v-192zM1032 630.4h-1040v342.4h1040v-342.4zM40 678.4h944v246.4h-944v-246.4zM1036.8 256h-489.6v329.6h489.6v-329.6zM595.2 304h393.6v233.6h-393.6v-233.6zM467.2 251.2h-476.8v334.4h476.8v-334.4zM38.4 299.2h380.8v238.4h-380.8v-238.4z" />
<glyph unicode="&#xe911;" glyph-name="layout-18" d="M1032-70.4h-1040v288h1040v-288zM40-22.4h944v192h-944v-192zM676.8 262.4h-318.4v329.6h318.4v-329.6zM406.4 310.4h222.4v233.6h-222.4v-233.6zM1035.2 630.4h-1040v342.4h1040v-342.4zM43.2 678.4h944v246.4h-944v-246.4zM310.4 256h-318.4v329.6h318.4v-329.6zM40 304h222.4v233.6h-222.4v-233.6zM1032 257.6h-318.4v329.6h318.4v-329.6zM761.6 305.6h222.4v233.6h-222.4v-233.6z" />
<glyph unicode="&#xe912;" glyph-name="layout-19" d="M1032-70.4h-1040v288h1040v-288zM40-22.4h944v192h-944v-192zM1035.2 630.4h-1040v342.4h1040v-342.4zM43.2 678.4h944v246.4h-944v-246.4zM686.4 256h-694.4v329.6h694.4v-329.6zM40 304h598.4v233.6h-598.4v-233.6zM1032 257.6h-318.4v329.6h318.4v-329.6zM761.6 305.6h222.4v233.6h-222.4v-233.6z" />
<glyph unicode="&#xe913;" glyph-name="layout-20" d="M1035.2-70.4h-1040v288h1040v-288zM43.2-22.4h944v192h-944v-192zM1032 630.4h-1040v342.4h1040v-342.4zM40 678.4h944v246.4h-944v-246.4zM1035.2 256h-694.4v329.6h694.4v-329.6zM388.8 304h598.4v233.6h-598.4v-233.6zM313.6 257.6h-318.4v329.6h318.4v-329.6zM43.2 305.6h222.4v233.6h-222.4v-233.6z" />
<glyph unicode="&#xe914;" glyph-name="layout-21" d="M1032-70.4h-1040v288h1040v-288zM40-22.4h944v192h-944v-192zM233.6 264h-241.6v329.6h241.6v-329.6zM40 312h145.6v233.6h-145.6v-233.6zM494.4 262.4h-241.6v329.6h241.6v-329.6zM300.8 310.4h145.6v233.6h-145.6v-233.6zM1032 262.4h-241.6v329.6h241.6v-329.6zM838.4 310.4h145.6v233.6h-145.6v-233.6zM764.8 264h-241.6v329.6h241.6v-329.6zM571.2 312h145.6v233.6h-145.6v-233.6zM1035.2 630.4h-1040v342.4h1040v-342.4zM43.2 678.4h944v246.4h-944v-246.4z" />
</font>
</defs>
</svg>
